<?xml version="1.0" encoding="UTF-8"?>
<svg id="Layer_1" xmlns="http://www.w3.org/2000/svg" version="1.1" viewBox="0 0 20 24" width="24" height="20">
  <!-- Generator: Adobe Illustrator 29.5.1, SVG Export Plug-In . SVG Version: 2.1.0 Build 141)  -->
  <defs>
    <style>
      .st0 {
        fill: #fff;
      }
    </style>
  </defs>
  <path class="st0" d="M14.5,5.8h.3c.8,0,3.1.3,4.5,2.4-.1,0-2.7,1.5-2.7,4.6,0,3.6,3.3,4.8,3.3,4.9,0,0-.5,1.7-1.7,3.4-1,1.5-2.1,2.9-3.8,3-1.6,0-2.2-.9-4-.9s-2.5.9-4,1c-1.6,0-2.9-1.6-3.9-3C.5,18-1.1,12.6,1,8.9c1.1-1.8,3-3,5.1-3,1.6,0,3.1,1,4,1s2.7-1.2,4.7-1.1h-.3ZM14.9,0c.2,1.4-.4,2.8-1.3,3.8-.9,1-2.3,1.8-3.7,1.7-.2-1.4.5-2.8,1.3-3.7C12.1.8,13.6,0,14.9,0Z"/>
</svg>