<?xml version="1.0" encoding="UTF-8"?>
<svg id="Layer_1" xmlns="http://www.w3.org/2000/svg" version="1.1" viewBox="0 0 83 20">
  <!-- Generator: Adobe Illustrator 29.5.1, SVG Export Plug-In . SVG Version: 2.1.0 Build 141)  -->
  <defs>
    <style>
      .st0 {
        fill: #fff;
      }
    </style>
  </defs>
  <path class="st0" d="M34.8,19.7V6.2h0l-5.4,13.5h-2.1l-5.4-13.5h0v13.5h-2.5V1.4h3.2l5.8,14.6h.1l5.8-14.6h3.2v18.3h-2.6ZM51.4,19.7h-2.6v-2.3h0c-.7,1.6-2.1,2.5-4.1,2.5-2.9,0-4.6-1.9-4.6-5V6.4h2.7v8.1c0,2,1,3.1,2.8,3.1s3.1-1.4,3.1-3.5v-7.8h2.7v13.4h0ZM58.8,6.1c3.1,0,5,1.7,5.1,4.2h-2.5c-.2-1.3-1.1-2.1-2.6-2.1s-2.4.7-2.4,1.8.6,1.4,2,1.7l2.1.5c2.7.6,3.7,1.7,3.7,3.6s-2.2,4.1-5.3,4.1-5.3-1.6-5.5-4.2h2.7c.2,1.4,1.2,2.1,2.8,2.1s2.6-.7,2.6-1.8-.5-1.4-1.9-1.7l-2.1-.5c-2.5-.6-3.7-1.8-3.7-3.8s2-4,5.1-4ZM66.1,2.8c0-.9.7-1.6,1.6-1.6s1.6.7,1.6,1.6-.7,1.6-1.6,1.6c-.9,0-1.6-.7-1.6-1.6h0ZM66.3,6.4h2.7v13.4h-2.7V6.4ZM80.4,11c-.3-1.4-1.3-2.6-3.1-2.6s-3.5,1.8-3.5,4.6,1.4,4.6,3.5,4.6,2.7-.9,3.1-2.5h2.6c-.3,2.8-2.5,4.8-5.7,4.8s-6.2-2.6-6.2-6.9,2.4-6.9,6.2-6.9,5.4,2.2,5.7,4.8h-2.6ZM10.8,3.2c-.7.8-1.8,1.5-2.9,1.4-.1-1.1.4-2.3,1-3.1C9.6.7,10.8,0,11.8,0c.1,1.2-.3,2.3-1,3.2h0ZM11.8,4.8c.6,0,2.4.2,3.6,2,0,0-2.1,1.3-2.1,3.8,0,3,2.6,4,2.6,4,0,0-.4,1.4-1.3,2.8-.8,1.2-1.7,2.4-3,2.4-1.3,0-1.7-.8-3.2-.8s-2,.8-3.2.8c-1.3,0-2.3-1.3-3.1-2.5C.4,14.9-.9,10.4.8,7.4c.8-1.5,2.4-2.5,4-2.5,1.3,0,2.5.9,3.2.9s2.1-1,3.7-.9h0Z"/>
</svg>